<?xml version="1.0" encoding="UTF-8"?>
<!DOCTYPE svg PUBLIC "-//W3C//DTD SVG 1.1//EN" "http://www.w3.org/Graphics/SVG/1.1/DTD/svg11.dtd">
<svg xmlns="http://www.w3.org/2000/svg" version="1.1" width="726px" height="710px" style="shape-rendering:geometricPrecision; text-rendering:geometricPrecision; image-rendering:optimizeQuality; fill-rule:evenodd; clip-rule:evenodd" xmlns:xlink="http://www.w3.org/1999/xlink">
<g><path style="opacity:0.999" fill="#aa975c" d="M 247.5,101.5 C 269.302,100.892 290.636,103.725 311.5,110C 321.606,113.886 331.606,118.052 341.5,122.5C 341.19,116.242 341.524,110.076 342.5,104C 357.496,103.5 372.496,103.333 387.5,103.5C 387.568,129.569 387.568,155.569 387.5,181.5C 372.83,181.667 358.163,181.5 343.5,181C 336.518,176.837 329.851,172.171 323.5,167C 298.914,153.682 272.914,149.682 245.5,155C 235.245,157.639 225.578,161.639 216.5,167C 210.057,172.44 203.891,178.273 198,184.5C 174.08,224.88 181.913,257.38 221.5,282C 250.254,294.931 279.587,296.598 309.5,287C 330.182,278.321 343.849,263.321 350.5,242C 345.761,241.274 341.095,241.607 336.5,243C 334.594,249.695 333.261,256.528 332.5,263.5C 319.167,263.5 305.833,263.5 292.5,263.5C 292.5,239.5 292.5,215.5 292.5,191.5C 383.149,191.401 473.816,191.401 564.5,191.5C 564.667,215.169 564.5,238.836 564,262.5C 550.913,263.489 537.746,263.823 524.5,263.5C 523.569,256.146 521.902,248.979 519.5,242C 503.167,241.333 486.833,241.333 470.5,242C 470,242.5 469.5,243 469,243.5C 468.333,273.833 468.333,304.167 469,334.5C 476.475,336.153 484.142,337.153 492,337.5C 492.193,351.033 492.693,364.533 493.5,378C 492.852,379.44 492.519,380.94 492.5,382.5C 456.167,382.5 419.833,382.5 383.5,382.5C 383.333,367.496 383.5,352.496 384,337.5C 391.413,336.519 398.913,336.186 406.5,336.5C 407.825,304.835 407.825,273.168 406.5,241.5C 402.233,241.203 398.066,241.536 394,242.5C 393.829,270.405 393.329,298.239 392.5,326C 377.167,326.667 361.833,326.667 346.5,326C 345.932,323.316 344.932,320.816 343.5,318.5C 335.428,322.357 327.095,325.524 318.5,328C 295.784,333.597 272.784,337.43 249.5,339.5C 213.755,338.532 181.755,327.365 153.5,306C 135.98,291.156 123.814,272.656 117,250.5C 112.619,229.431 113.952,208.764 121,188.5C 125.558,178.383 130.891,168.716 137,159.5C 165.866,124.983 202.7,105.65 247.5,101.5 Z"/></g>
<g><path style="opacity:0.343" fill="#baab7b" d="M 507.5,363.5 C 516.473,363.98 519.973,368.647 518,377.5C 515.103,382.155 510.937,383.655 505.5,382C 497.086,374.895 497.752,368.728 507.5,363.5 Z"/></g>
<g><path style="opacity:0.99" fill="#01294c" d="M 186.5,455.5 C 181.711,455.365 176.711,455.365 171.5,455.5C 171.665,452.482 171.498,449.482 171,446.5C 169.786,444.951 168.286,443.785 166.5,443C 147.335,436.568 135.835,443.068 132,462.5C 131.135,474.543 131.468,486.543 133,498.5C 133.833,500.167 134.667,501.833 135.5,503.5C 136.002,504.521 136.668,504.688 137.5,504C 133.582,497.481 132.582,490.647 134.5,483.5C 133.955,490.982 135.455,497.982 139,504.5C 147.222,509.641 156.055,510.808 165.5,508C 166.931,507.535 168.097,506.701 169,505.5C 169.499,499.509 169.666,493.509 169.5,487.5C 163.907,487.807 158.407,487.473 153,486.5C 152.196,481.249 152.363,476.082 153.5,471C 165.076,470.18 176.576,470.346 188,471.5C 188.828,486.672 188.661,501.672 187.5,516.5C 187.217,515.711 186.717,515.044 186,514.5C 173.663,523.466 159.83,526.632 144.5,524C 129.209,521.042 120.375,511.876 118,496.5C 117.106,481.792 117.44,467.126 119,452.5C 122.5,441 130,433.5 141.5,430C 140.748,429.329 140.414,428.496 140.5,427.5C 157.828,423.13 173.328,426.463 187,437.5C 187.819,443.681 187.653,449.681 186.5,455.5 Z"/></g>
<g><path style="opacity:0.996" fill="#042b4e" d="M 474.5,427.5 C 480.176,427.334 485.843,427.501 491.5,428C 492.639,433.416 492.806,438.916 492,444.5C 475.123,450.122 469.289,444.456 474.5,427.5 Z"/></g>
<g><path style="opacity:0.999" fill="#01274a" d="M 223.5,453.5 C 235.496,452.254 245.663,455.921 254,464.5C 258.883,474.597 260.716,485.264 259.5,496.5C 245.255,496.176 231.088,496.51 217,497.5C 217.441,506.097 222.108,510.43 231,510.5C 237.473,509.677 243.306,507.344 248.5,503.5C 253.901,506.032 257.068,510.032 258,515.5C 245.333,527.433 230.833,530.267 214.5,524C 205.118,518.083 199.618,509.583 198,498.5C 195.162,483.206 198.996,470.039 209.5,459C 214.017,456.445 218.684,454.612 223.5,453.5 Z M 223.5,470.5 C 233.429,468.118 239.429,471.785 241.5,481.5C 233.167,481.5 224.833,481.5 216.5,481.5C 216.813,476.526 219.146,472.859 223.5,470.5 Z"/></g>
<g><path style="opacity:0.994" fill="#01294c" d="M 327.5,508.5 C 326.85,508.196 326.183,507.863 325.5,507.5C 318.007,522.408 306.007,527.908 289.5,524C 275.225,517.81 268.559,506.81 269.5,491C 269.791,483.94 271.124,477.107 273.5,470.5C 273.333,470.167 273.167,469.833 273,469.5C 272.114,472.093 270.614,474.093 268.5,475.5C 272.797,460.25 282.964,452.917 299,453.5C 314.992,454.147 324.992,462.147 329,477.5C 330.002,487.97 329.502,498.304 327.5,508.5 Z M 296.5,470.5 C 300.824,470.536 304.658,471.869 308,474.5C 312.9,485.973 312.4,497.14 306.5,508C 297.164,512.55 290.664,510.05 287,500.5C 286.104,492.754 286.437,485.087 288,477.5C 289.866,473.784 292.699,471.45 296.5,470.5 Z"/></g>
<g><path style="opacity:0.999" fill="#02294c" d="M 459.5,456.5 C 458.448,456.351 457.448,456.517 456.5,457C 457.464,461.066 457.797,465.233 457.5,469.5C 454.675,469.162 452.508,470.162 451,472.5C 450.667,472.167 450.333,471.833 450,471.5C 449.667,490.5 449.333,509.5 449,528.5C 447.631,537.414 442.798,543.58 434.5,547C 421.815,551.312 409.815,549.979 398.5,543C 397.228,541.693 396.228,540.193 395.5,538.5C 395.24,539.905 394.907,541.238 394.5,542.5C 393.527,540.932 393.36,539.265 394,537.5C 396.869,534.296 400.035,531.463 403.5,529C 404.5,528.333 405.5,528.333 406.5,529C 415.07,536.809 423.57,536.976 432,529.5C 433.544,526.209 433.711,522.876 432.5,519.5C 417.815,527.037 405.315,524.37 395,511.5C 393.692,508.27 392.692,504.936 392,501.5C 391.333,492.833 391.333,484.167 392,475.5C 395.949,458.901 406.449,451.735 423.5,454C 426.713,454.606 429.713,455.773 432.5,457.5C 433.59,456.273 434.924,455.44 436.5,455C 443.5,454.333 450.5,454.333 457.5,455C 458.416,455.278 459.082,455.778 459.5,456.5 Z M 428.5,505.5 C 417.253,509.536 411.253,505.536 410.5,493.5C 409.178,486.432 410.345,479.766 414,473.5C 419.021,469.707 424.187,469.54 429.5,473C 433.819,481.43 434.653,490.263 432,499.5C 431.074,501.692 429.907,503.692 428.5,505.5 Z"/></g>
<g><path style="opacity:0.99" fill="#02284c" d="M 526.5,453.5 C 537.693,452.225 548.193,454.225 558,459.5C 560.384,463.325 562.384,467.325 564,471.5C 564.5,484.162 564.667,496.829 564.5,509.5C 567.119,509.232 569.619,509.565 572,510.5C 572.802,515.419 572.635,520.252 571.5,525C 563.451,525.983 555.451,526.15 547.5,525.5C 547.5,524.5 547.5,523.5 547.5,522.5C 538.768,527.525 529.434,528.692 519.5,526C 505.565,517.774 502.065,506.274 509,491.5C 513.546,486.645 519.046,483.478 525.5,482C 532.492,481.5 539.492,481.334 546.5,481.5C 546.919,473.252 542.919,469.252 534.5,469.5C 532.235,469.94 530.068,470.606 528,471.5C 527.503,473.81 527.337,476.143 527.5,478.5C 521.783,479.923 516.116,479.757 510.5,478C 509.358,471.916 509.191,465.749 510,459.5C 510.5,459 511,458.5 511.5,458C 516.577,456.32 521.577,454.82 526.5,453.5 Z M 530.5,496.5 C 535.833,496.5 541.167,496.5 546.5,496.5C 548.111,507.225 543.444,512.225 532.5,511.5C 525.828,511.334 522.995,508 524,501.5C 525.805,499.174 527.972,497.508 530.5,496.5 Z"/></g>
<g><path style="opacity:0.989" fill="#03294d" d="M 338.5,454.5 C 345.841,454.334 353.174,454.5 360.5,455C 362.049,456.214 363.215,457.714 364,459.5C 366.251,457.623 368.751,456.123 371.5,455C 376.5,454.333 381.5,454.333 386.5,455C 387,455.5 387.5,456 388,456.5C 388.499,461.823 388.666,467.156 388.5,472.5C 382.993,472.568 377.326,472.735 371.5,473C 367.512,474.448 365.012,477.281 364,481.5C 363.168,490.851 363.335,500.184 364.5,509.5C 367.201,508.131 369.701,508.464 372,510.5C 372.663,515.537 372.496,520.537 371.5,525.5C 359.829,526.808 348.162,526.808 336.5,525.5C 336.172,520.125 336.505,514.792 337.5,509.5C 339.747,508.626 342.08,508.292 344.5,508.5C 345.493,497.183 345.66,485.85 345,474.5C 342.614,472.909 339.947,471.909 337,471.5C 335.958,465.545 336.458,459.878 338.5,454.5 Z"/></g>
<g><path style="opacity:0.999" fill="#02294c" d="M 468.5,454.5 C 475.841,454.334 483.174,454.5 490.5,455C 491,455.5 491.5,456 492,456.5C 492.333,473.833 492.667,491.167 493,508.5C 495.498,507.879 497.832,508.545 500,510.5C 500.802,515.419 500.635,520.252 499.5,525C 488.505,525.5 477.505,525.667 466.5,525.5C 465.764,520.626 465.764,515.793 466.5,511C 468.287,508.866 470.62,508.033 473.5,508.5C 473.5,496.5 473.5,484.5 473.5,472.5C 471.473,472.662 469.473,472.495 467.5,472C 466.874,471.25 466.374,470.416 466,469.5C 465.333,465.167 465.333,460.833 466,456.5C 466.995,455.934 467.828,455.267 468.5,454.5 Z"/></g>
<g><path style="opacity:0.355" fill="#011b41" d="M 140.5,427.5 C 140.414,428.496 140.748,429.329 141.5,430C 130,433.5 122.5,441 119,452.5C 117.44,467.126 117.106,481.792 118,496.5C 120.375,511.876 129.209,521.042 144.5,524C 159.83,526.632 173.663,523.466 186,514.5C 186.717,515.044 187.217,515.711 187.5,516.5C 172.333,527.076 155.666,529.909 137.5,525C 123.358,519.199 115.858,508.699 115,493.5C 114.147,480.462 114.48,467.462 116,454.5C 119.514,441.158 127.681,432.158 140.5,427.5 Z"/></g>
<g><path style="opacity:0.561" fill="#001940" d="M 428.5,505.5 C 429.907,503.692 431.074,501.692 432,499.5C 434.653,490.263 433.819,481.43 429.5,473C 424.187,469.54 419.021,469.707 414,473.5C 410.345,479.766 409.178,486.432 410.5,493.5C 409.85,493.804 409.183,494.137 408.5,494.5C 406.736,486.845 407.57,479.511 411,472.5C 416.623,468.219 422.79,467.385 429.5,470C 434.871,475.109 437.204,481.443 436.5,489C 437.051,495.643 435.218,501.476 431,506.5C 430.329,505.748 429.496,505.414 428.5,505.5 Z"/></g>
<g><path style="opacity:0.823" fill="#001b40" d="M 459.5,456.5 C 460.648,460.981 460.815,465.648 460,470.5C 457.865,472.278 455.365,472.945 452.5,472.5C 452.667,491.17 452.5,509.836 452,528.5C 447.631,545.012 436.798,553.012 419.5,552.5C 409.776,552.267 401.442,548.934 394.5,542.5C 394.907,541.238 395.24,539.905 395.5,538.5C 396.228,540.193 397.228,541.693 398.5,543C 409.815,549.979 421.815,551.312 434.5,547C 442.798,543.58 447.631,537.414 449,528.5C 449.333,509.5 449.667,490.5 450,471.5C 450.333,471.833 450.667,472.167 451,472.5C 452.508,470.162 454.675,469.162 457.5,469.5C 457.797,465.233 457.464,461.066 456.5,457C 457.448,456.517 458.448,456.351 459.5,456.5 Z"/></g>
<g><path style="opacity:0.548" fill="#00133a" d="M 186.5,455.5 C 186.586,456.496 186.252,457.329 185.5,458C 180.136,458.829 174.802,458.663 169.5,457.5C 168.738,453.889 168.238,450.222 168,446.5C 159.105,442.363 150.272,442.529 141.5,447C 139.273,449.564 137.439,452.397 136,455.5C 134.684,464.782 134.184,474.116 134.5,483.5C 132.582,490.647 133.582,497.481 137.5,504C 136.668,504.688 136.002,504.521 135.5,503.5C 134.667,501.833 133.833,500.167 133,498.5C 131.468,486.543 131.135,474.543 132,462.5C 135.835,443.068 147.335,436.568 166.5,443C 168.286,443.785 169.786,444.951 171,446.5C 171.498,449.482 171.665,452.482 171.5,455.5C 176.711,455.365 181.711,455.365 186.5,455.5 Z"/></g>
<g><path style="opacity:0.458" fill="#01173c" d="M 327.5,508.5 C 324.463,515.708 319.463,521.208 312.5,525C 297.154,530.467 283.988,527.301 273,515.5C 268.757,507.55 266.924,499.05 267.5,490C 267.628,485.141 267.961,480.307 268.5,475.5C 270.614,474.093 272.114,472.093 273,469.5C 273.167,469.833 273.333,470.167 273.5,470.5C 271.124,477.107 269.791,483.94 269.5,491C 268.559,506.81 275.225,517.81 289.5,524C 306.007,527.908 318.007,522.408 325.5,507.5C 326.183,507.863 326.85,508.196 327.5,508.5 Z"/></g>
<g><path style="opacity:0.999" fill="#01284b" d="M 259.5,547.5 C 271.815,548.832 284.482,549.499 297.5,549.5C 310.518,549.499 323.185,548.832 335.5,547.5C 336.5,547.5 337.5,547.5 338.5,547.5C 338.666,556.506 338.5,565.506 338,574.5C 332.864,575.814 327.697,575.814 322.5,574.5C 321.516,571.572 321.183,568.572 321.5,565.5C 317.167,565.5 312.833,565.5 308.5,565.5C 308.333,586.169 308.5,606.836 309,627.5C 311.667,628.167 314.333,628.833 317,629.5C 317.667,634.5 317.667,639.5 317,644.5C 304.909,645.654 292.742,645.821 280.5,645C 279.363,639.918 279.196,634.751 280,629.5C 282.719,628.556 285.552,628.223 288.5,628.5C 289.62,607.858 289.787,587.191 289,566.5C 284.921,565.371 280.755,565.204 276.5,566C 275.875,568.8 275.208,571.634 274.5,574.5C 269.554,575.614 264.554,575.781 259.5,575C 258.172,565.735 258.172,556.568 259.5,547.5 Z"/></g>
<g><path style="opacity:0.692" fill="#254766" d="M 259.5,547.5 C 284.833,547.5 310.167,547.5 335.5,547.5C 323.185,548.832 310.518,549.499 297.5,549.5C 284.482,549.499 271.815,548.832 259.5,547.5 Z"/></g>
<g><path style="opacity:0.998" fill="#01284b" d="M 466.5,547.5 C 475.085,547.183 483.585,547.517 492,548.5C 492.333,558.5 492.667,568.5 493,578.5C 494.952,576.106 497.452,574.606 500.5,574C 518.463,570.556 529.296,577.723 533,595.5C 533.5,606.495 533.667,617.495 533.5,628.5C 535.792,628.244 537.959,628.577 540,629.5C 540.804,634.751 540.637,639.918 539.5,645C 528.59,645.82 517.757,645.653 507,644.5C 506.333,639.5 506.333,634.5 507,629.5C 509.333,628.833 511.667,628.167 514,627.5C 514.667,617.833 514.667,608.167 514,598.5C 511.517,590.921 506.35,588.421 498.5,591C 497,592.5 495.5,594 494,595.5C 492.594,606.436 492.094,617.436 492.5,628.5C 495.119,628.232 497.619,628.565 500,629.5C 500.781,634.554 500.614,639.554 499.5,644.5C 488.52,645.499 477.52,645.832 466.5,645.5C 465.504,640.537 465.337,635.537 466,630.5C 468.038,628.928 470.371,627.928 473,627.5C 473.5,606.503 473.667,585.503 473.5,564.5C 471.208,564.756 469.041,564.423 467,563.5C 466.501,558.177 466.334,552.844 466.5,547.5 Z"/></g>
<g><path style="opacity:0.998" fill="#02274a" d="M 359.5,572.5 C 382.253,574.43 393.253,586.93 392.5,610C 393.04,614.417 391.04,616.75 386.5,617C 374.819,617.399 363.153,617.399 351.5,617C 349.145,618.865 348.978,621.031 351,623.5C 355.53,629.171 361.363,631.004 368.5,629C 372.537,627.463 376.204,625.296 379.5,622.5C 384.62,624.791 388.62,628.291 391.5,633C 390.415,635.172 389.081,637.172 387.5,639C 373.302,647.677 358.636,648.677 343.5,642C 336.991,637.478 332.825,631.312 331,623.5C 328.26,610.375 329.593,597.708 335,585.5C 341.33,577.586 349.497,573.253 359.5,572.5 Z M 357.5,589.5 C 364.74,588.369 369.906,591.035 373,597.5C 373.667,598.833 373.667,600.167 373,601.5C 365.182,602.181 357.349,602.348 349.5,602C 348.961,595.935 351.627,591.768 357.5,589.5 Z"/></g>
<g><path style="opacity:0.998" fill="#02294d" d="M 457.5,638.5 C 456.883,638.389 456.383,638.056 456,637.5C 455.667,632.5 455.333,627.5 455,622.5C 454.83,628.196 454.33,633.862 453.5,639.5C 446.733,642.862 439.566,644.196 432,643.5C 415.84,644.684 405.84,637.351 402,621.5C 401.329,622.252 400.496,622.586 399.5,622.5C 397.193,609.476 399.027,597.143 405,585.5C 415.078,574.255 427.578,570.422 442.5,574C 448.394,574.619 453.227,577.119 457,581.5C 457.706,587.87 457.539,594.203 456.5,600.5C 451.156,600.666 445.823,600.499 440.5,600C 440.047,596.773 439.047,593.773 437.5,591C 423.047,588.617 416.381,594.783 417.5,609.5C 415.897,624.732 422.563,631.232 437.5,629C 439.314,626.519 439.98,623.685 439.5,620.5C 445.244,619.046 450.91,619.213 456.5,621C 457.475,626.741 457.808,632.575 457.5,638.5 Z"/></g>
<g><path style="opacity:0.671" fill="#385371" d="M 552.5,628.5 C 561.416,627.585 565.416,631.418 564.5,640C 559.831,646.539 554.665,647.039 549,641.5C 548.333,638.5 548.333,635.5 549,632.5C 550.102,631.051 551.269,629.718 552.5,628.5 Z"/></g>
<g><path style="opacity:0.591" fill="#9aaab8" d="M 553.5,631.5 C 558.836,630.185 561.503,632.185 561.5,637.5C 560.5,637.5 559.5,637.5 558.5,637.5C 558.5,636.167 558.5,634.833 558.5,633.5C 556.833,633.5 555.167,633.5 553.5,633.5C 553.192,635.924 553.526,638.257 554.5,640.5C 555.251,639.624 555.751,638.624 556,637.5C 556.833,638.5 557.667,639.5 558.5,640.5C 559.167,639.833 559.833,639.167 560.5,638.5C 561.594,639.868 561.26,641.035 559.5,642C 554.515,643.757 551.849,642.09 551.5,637C 551.395,634.822 552.061,632.988 553.5,631.5 Z"/></g>
<g><path style="opacity:0.589" fill="#001339" d="M 457.5,638.5 C 456.653,640.844 454.986,642.344 452.5,643C 438.638,647.988 424.972,647.655 411.5,642C 405.828,636.482 401.828,629.982 399.5,622.5C 400.496,622.586 401.329,622.252 402,621.5C 405.84,637.351 415.84,644.684 432,643.5C 439.566,644.196 446.733,642.862 453.5,639.5C 454.33,633.862 454.83,628.196 455,622.5C 455.333,627.5 455.667,632.5 456,637.5C 456.383,638.056 456.883,638.389 457.5,638.5 Z"/></g>
</svg>
